# xmcd
#
# Track frame offsets:
#	150
#	21527
#	38330
#	52475
#	70075
#	82537
#	94767
#	110775
#	128735
#	144487
#	158955
#	180037
#	196162
#	217265
#	232852
#	242925
#	257572
#
# Disc length: 3641 seconds
#
# Revision: 1
# Processed by: cddbd v1.5.2PL0 Copyright (c) Steve Scherf et al.
# Submitted via: EZCDAudioConverter 8.0.2.1
#
DISCID=e50e3711
DTITLE=DALLAS COUNTRY - AO VIVO (ALÔ, GALERA DE COWBOY!) [CD 2 502928) COLUMBI
DTITLE=A
DYEAR=2003
DGENRE=Country
TTITLE0=CLIMA DE RODEIO AO VIVO (BY GILMAR SINISTRO)
TTITLE1=MAN! I FEEL, LIKE A WOMAN AO VIVO (BY GILMAR SINISTRO)
TTITLE2=FESTA DE PEÃO AO VIVO (BY GILMAR SINISTRO)
TTITLE3=ANY MEN OF MINE AO VIVO (BY GILMAR SINISTRO)
TTITLE4=LITTLE BITY AO VIVO (BY GILMAR SINISTRO)
TTITLE5=FERIADO NACIONAL AO VIVO (BY GILMAR SINISTRO)
TTITLE6=CARA DE RESSACA AO VIVO (BY GILMAR SINISTRO)
TTITLE7=DANÇA DE COWBOY AO VIVO (BY GILMAR SINISTRO)
TTITLE8=TARDE DEMAIS AO VIVO (BY GILMAR SINISTRO)
TTITLE9=DIVERSÃO AO VIVO (BY GILMAR SINISTRO)
TTITLE10=SOLITÁRIO DO SERTÃO AO VIVO (BY GILMAR SINISTRO)
TTITLE11=SAUDADE AO VIVO (BY GILMAR SINISTRO)
TTITLE12=YOUR LATEST TRICK AO VIVO (BY GILMAR SINISTRO)
TTITLE13=AMEI VOCÊ AO VIVO (BY GILMAR SINISTRO)
TTITLE14=ORAÇÃO DO COWBOY AO VIVO (BY GILMAR SINISTRO)
TTITLE15=COWBOY PRATEADO AO VIVO (BY GILMAR SINISTRO)
TTITLE16=NADA VAI ME DERRUBAR AO VIVO (BY GILMAR SINISTRO)
EXTD=
EXTT0=
EXTT1=
EXTT2=
EXTT3=
EXTT4=
EXTT5=
EXTT6=
EXTT7=
EXTT8=
EXTT9=
EXTT10=
EXTT11=
EXTT12=
EXTT13=
EXTT14=
EXTT15=
EXTT16=
PLAYORDER=
